<svg xmlns="http://www.w3.org/2000/svg" width="1000" height="620" viewBox="0 0 1000 620">
<rect width="100%" height="100%" fill="#ffffff"/>
<text x="90" y="35" font-family="sans-serif" font-size="22" font-weight="600">Gateway minus direct end-to-end latency versus concurrency</text>
<line x1="90" y1="545.00" x2="760" y2="545.00" stroke="#e5e7eb"/>
<text x="80" y="549.00" text-anchor="end" font-family="sans-serif" font-size="12">-7136.12</text>
<line x1="90" y1="450.00" x2="760" y2="450.00" stroke="#e5e7eb"/>
<text x="80" y="454.00" text-anchor="end" font-family="sans-serif" font-size="12">-4937.81</text>
<line x1="90" y1="355.00" x2="760" y2="355.00" stroke="#e5e7eb"/>
<text x="80" y="359.00" text-anchor="end" font-family="sans-serif" font-size="12">-2739.50</text>
<line x1="90" y1="260.00" x2="760" y2="260.00" stroke="#e5e7eb"/>
<text x="80" y="264.00" text-anchor="end" font-family="sans-serif" font-size="12">-541.20</text>
<line x1="90" y1="165.00" x2="760" y2="165.00" stroke="#e5e7eb"/>
<text x="80" y="169.00" text-anchor="end" font-family="sans-serif" font-size="12">1657.11</text>
<line x1="90" y1="70.00" x2="760" y2="70.00" stroke="#e5e7eb"/>
<text x="80" y="74.00" text-anchor="end" font-family="sans-serif" font-size="12">3855.42</text>
<text x="90.00" y="570" text-anchor="middle" font-family="sans-serif" font-size="12">1</text>
<text x="224.00" y="570" text-anchor="middle" font-family="sans-serif" font-size="12">4</text>
<text x="358.00" y="570" text-anchor="middle" font-family="sans-serif" font-size="12">8</text>
<text x="492.00" y="570" text-anchor="middle" font-family="sans-serif" font-size="12">16</text>
<text x="626.00" y="570" text-anchor="middle" font-family="sans-serif" font-size="12">32</text>
<text x="760.00" y="570" text-anchor="middle" font-family="sans-serif" font-size="12">64</text>
<line x1="90" y1="70" x2="90" y2="545" stroke="#111827"/>
<line x1="90" y1="545" x2="760" y2="545" stroke="#111827"/>
<text x="425.0" y="600" text-anchor="middle" font-family="sans-serif" font-size="14">Concurrency</text>
<text transform="translate(22 307.5) rotate(-90)" text-anchor="middle" font-family="sans-serif" font-size="14">Latency difference (ms)</text>
<polyline fill="none" stroke="#2563eb" stroke-width="2.5" points="90.00,244.00 224.00,177.09 358.00,188.07 492.00,372.23 626.00,250.34 760.00,505.42"/>
<circle cx="90.00" cy="244.00" r="3.5" fill="#2563eb"/>
<circle cx="224.00" cy="177.09" r="3.5" fill="#2563eb"/>
<circle cx="358.00" cy="188.07" r="3.5" fill="#2563eb"/>
<circle cx="492.00" cy="372.23" r="3.5" fill="#2563eb"/>
<circle cx="626.00" cy="250.34" r="3.5" fill="#2563eb"/>
<circle cx="760.00" cy="505.42" r="3.5" fill="#2563eb"/>
<line x1="785" y1="70" x2="810" y2="70" stroke="#2563eb" stroke-width="3"/>
<text x="820" y="74" font-family="sans-serif" font-size="12">long p50</text>
<polyline fill="none" stroke="#dc2626" stroke-width="2.5" points="90.00,230.40 224.00,193.12 358.00,392.39 492.00,151.61 626.00,109.58 760.00,150.67"/>
<circle cx="90.00" cy="230.40" r="3.5" fill="#dc2626"/>
<circle cx="224.00" cy="193.12" r="3.5" fill="#dc2626"/>
<circle cx="358.00" cy="392.39" r="3.5" fill="#dc2626"/>
<circle cx="492.00" cy="151.61" r="3.5" fill="#dc2626"/>
<circle cx="626.00" cy="109.58" r="3.5" fill="#dc2626"/>
<circle cx="760.00" cy="150.67" r="3.5" fill="#dc2626"/>
<line x1="785" y1="94" x2="810" y2="94" stroke="#dc2626" stroke-width="3"/>
<text x="820" y="98" font-family="sans-serif" font-size="12">long p95</text>
<polyline fill="none" stroke="#059669" stroke-width="2.5" points="90.00,237.64 224.00,290.74 358.00,307.30 492.00,233.39 626.00,227.23 760.00,428.70"/>
<circle cx="90.00" cy="237.64" r="3.5" fill="#059669"/>
<circle cx="224.00" cy="290.74" r="3.5" fill="#059669"/>
<circle cx="358.00" cy="307.30" r="3.5" fill="#059669"/>
<circle cx="492.00" cy="233.39" r="3.5" fill="#059669"/>
<circle cx="626.00" cy="227.23" r="3.5" fill="#059669"/>
<circle cx="760.00" cy="428.70" r="3.5" fill="#059669"/>
<line x1="785" y1="118" x2="810" y2="118" stroke="#059669" stroke-width="3"/>
<text x="820" y="122" font-family="sans-serif" font-size="12">medium p50</text>
<polyline fill="none" stroke="#d97706" stroke-width="2.5" points="90.00,232.33 224.00,212.04 358.00,291.27 492.00,143.04 626.00,183.29 760.00,296.75"/>
<circle cx="90.00" cy="232.33" r="3.5" fill="#d97706"/>
<circle cx="224.00" cy="212.04" r="3.5" fill="#d97706"/>
<circle cx="358.00" cy="291.27" r="3.5" fill="#d97706"/>
<circle cx="492.00" cy="143.04" r="3.5" fill="#d97706"/>
<circle cx="626.00" cy="183.29" r="3.5" fill="#d97706"/>
<circle cx="760.00" cy="296.75" r="3.5" fill="#d97706"/>
<line x1="785" y1="142" x2="810" y2="142" stroke="#d97706" stroke-width="3"/>
<text x="820" y="146" font-family="sans-serif" font-size="12">medium p95</text>
<polyline fill="none" stroke="#7c3aed" stroke-width="2.5" points="90.00,235.80 224.00,229.56 358.00,240.18 492.00,283.10 626.00,230.18 760.00,237.38"/>
<circle cx="90.00" cy="235.80" r="3.5" fill="#7c3aed"/>
<circle cx="224.00" cy="229.56" r="3.5" fill="#7c3aed"/>
<circle cx="358.00" cy="240.18" r="3.5" fill="#7c3aed"/>
<circle cx="492.00" cy="283.10" r="3.5" fill="#7c3aed"/>
<circle cx="626.00" cy="230.18" r="3.5" fill="#7c3aed"/>
<circle cx="760.00" cy="237.38" r="3.5" fill="#7c3aed"/>
<line x1="785" y1="166" x2="810" y2="166" stroke="#7c3aed" stroke-width="3"/>
<text x="820" y="170" font-family="sans-serif" font-size="12">short p50</text>
<polyline fill="none" stroke="#0891b2" stroke-width="2.5" points="90.00,236.25 224.00,223.07 358.00,247.09 492.00,288.62 626.00,208.53 760.00,194.87"/>
<circle cx="90.00" cy="236.25" r="3.5" fill="#0891b2"/>
<circle cx="224.00" cy="223.07" r="3.5" fill="#0891b2"/>
<circle cx="358.00" cy="247.09" r="3.5" fill="#0891b2"/>
<circle cx="492.00" cy="288.62" r="3.5" fill="#0891b2"/>
<circle cx="626.00" cy="208.53" r="3.5" fill="#0891b2"/>
<circle cx="760.00" cy="194.87" r="3.5" fill="#0891b2"/>
<line x1="785" y1="190" x2="810" y2="190" stroke="#0891b2" stroke-width="3"/>
<text x="820" y="194" font-family="sans-serif" font-size="12">short p95</text>
</svg>
